# Blender v2.82 (sub 7) OBJ File: ''
# www.blender.org
mtllib cube_10_6_6.mtl
o Cube.001
v -0.627997 -0.603467 -0.596798
v -0.623795 0.596488 -0.606256
v 0.096194 0.593991 -0.603154
v 0.091992 -0.605964 -0.593696
v -0.633134 -0.593991 0.603154
v -0.628932 0.605964 0.593696
v 0.086855 -0.596488 0.606256
v 0.091057 0.603467 0.596798
vt 0.375000 0.250000
vt 0.625000 0.250000
vt 0.625000 0.500000
vt 0.375000 0.500000
vt 0.375000 0.000000
vt 0.625000 0.000000
vt 0.375000 0.750000
vt 0.625000 0.750000
vt 0.625000 1.000000
vt 0.375000 1.000000
vt 0.875000 0.500000
vt 0.875000 0.750000
vt 0.125000 0.500000
vt 0.125000 0.750000
vn 0.0043 -0.0079 -1.0000
vn -1.0000 0.0035 -0.0043
vn -0.0043 0.0079 1.0000
vn 1.0000 -0.0035 0.0043
vn 0.0035 1.0000 -0.0079
vn -0.0035 -1.0000 0.0079
usemtl white
s 1
f 1/1/1 2/2/1 3/3/1 4/4/1
usemtl blue
f 5/5/2 6/6/2 2/2/2 1/1/2
usemtl yellow
f 7/7/3 8/8/3 6/9/3 5/10/3
usemtl green
f 4/4/4 3/3/4 8/8/4 7/7/4
usemtl black
f 3/3/5 2/11/5 6/12/5 8/8/5
usemtl pink
f 1/13/6 4/4/6 7/7/6 5/14/6
